<svg id="图层_1" data-name="图层 1" xmlns="http://www.w3.org/2000/svg" width="32" height="32" viewBox="0 0 32 32"><title>logo-32</title><path d="M7.3,19.6a3.7,3.7,0,0,1-2.7,1.1C2,20.8,0,18.3.3,14.4A6.7,6.7,0,0,1,4.9,8.2,2.7,2.7,0,0,1,7,6.7c2.9-.3,3.4,2.9,2.9,6.8a11.5,11.5,0,0,1-1.8,5.2A12.2,12.2,0,0,0,15,22.1c3.2.5,4.7-.3,5.4-1.4s1.5,2.5.7,3.6-4.3,1.1-6.8.1A19.5,19.5,0,0,1,7.3,19.6Zm-1-1.3a11.5,11.5,0,0,1-1.8-3.7,9.8,9.8,0,0,1-.1-5.1A12.1,12.1,0,0,0,3.3,14c-.2,2.3.5,4.4,2.2,4.3Zm.9-.5c1.1-.8,1.7-2.4,1.9-4.3S8.9,9.2,7.2,9.3s-2.3,2.8-1.9,4.8A9.3,9.3,0,0,0,7.2,17.8Z" fill="#303131"/><path d="M14.4,17c.2-.1.5.1.3.6s-1.4,2.7-2.6,2.4-2.2-2.4-1.8-4.8,2.5-2.9,3.8-2a6.7,6.7,0,0,0-1,2.9c-.2,1.5-.4,2.8,0,2.8s.9-.8,1.2-1.9ZM13,11.7a1.9,1.9,0,0,1-1.5-2A1.8,1.8,0,0,1,14,8.4a1.6,1.6,0,0,1,1.2,2.2A2.1,2.1,0,0,1,13,11.7Z" fill="#303131"/><path d="M20.3,16.1c-.1,1.3-.3,2.5.2,2.6s.8-.7,1.1-1.8h.1c.2-.1.5.1.3.6s-1.4,2.5-2.6,2.2-1.3-1-1.6-2.2c-.2,1-.4,2.1-1.5,2.2s-2.4-1-2.3-1.9,1.3-1.6,2.4-1.9l1.2-.3v-.9c.1-.7,0-1.9-.6-1.9a1.2,1.2,0,0,0-1.1,1c-.1.6.7.7.9-.2H17c.5.5.6,1.6-.2,1.9s-2.6-.5-2.3-1.8,1.6-2,3.6-1.6S20.6,13.5,20.3,16.1Zm-2.8.1a1.4,1.4,0,0,0-.5,1c-.1.7-.1,1.2.1,1.2S17.4,17.7,17.5,16.2Z" fill="#303131"/><path d="M26.8,24.3a9.5,9.5,0,0,1-1-1.7l-.8.3c-1.3.4-1.5,1.2-1.5,1.2s-1.9-2.8.3-3.7l1.2-.3a11.4,11.4,0,0,1,.1-4.1c.4-1.9.9-2.6.5-2.7s-.5.7-1.3,3.2-1.9,3.5-3.1,3.1a2.8,2.8,0,0,1-.1-.8c-.3-3.8-.4-6.1.6-6.9s3.2.4,3.2.4a6.2,6.2,0,0,0-.4,2c.8-2.2,1.6-2.8,2.6-2.5s1.5,1.6,1.1,3.9a31.9,31.9,0,0,0-.3,4.2,4.4,4.4,0,0,1,3.7,2.5C32.7,25.4,28.6,26.3,26.8,24.3Zm1.3-2.1a8.9,8.9,0,0,0,.5,1.3c.9,1.7,2.7,1.2,2.4-.4S29.7,22,28.1,22.2Z" fill="#303131"/></svg>