<?xml version="1.0" encoding="utf-8"?>
<!-- Generator: Adobe Illustrator 24.0.1, SVG Export Plug-In . SVG Version: 6.00 Build 0)  -->
<svg version="1.1" id="图层_1" xmlns="http://www.w3.org/2000/svg" xmlns:xlink="http://www.w3.org/1999/xlink" x="0px" y="0px"
	 viewBox="0 0 600 365.7" style="enable-background:new 0 0 600 365.7;" xml:space="preserve">
<style type="text/css">
	.st0{fill:#FFFFFF;}
</style>
<title>logo_white</title>
<path class="st0" d="M137.6,261.3C122.7,276,103,285.2,82,287.3c-50.3,4.4-86-40.5-75.6-119.1c9-70.3,61.4-116.3,99.5-128
	c10.1-17.5,24.5-29.7,42.6-32.8c58-10.4,63,52.4,48.2,129.5c-8,41.1-22.7,78.9-43.5,106.8C188.8,277.4,235,297.6,284,301
	c62.7,3.9,93.4-13.6,107.4-36.6c0,0,27.3,47,9.5,71.5c-22.7,31.9-85.4,27.3-133.6,11C219.1,330.7,171.9,300.3,137.6,261.3z
	 M118.5,236.7c-14.5-21.2-24.7-45-30.1-70c-6.2-29.2-4.4-68.1,5.6-100C82.6,85.1,71.6,115.8,65.2,156c-6.8,46.7,4.7,86,37.5,83.1
	C108.1,239.1,113.4,238.4,118.5,236.7z M137.6,226.5c22.4-17.2,36.1-50.6,42.6-87.8c9.8-57.7,2.4-84-31.6-79.5
	c-36.1,4.7-48.2,58.6-43.2,96.4C108.7,179.9,119.8,204.5,137.6,226.5z"/>
<path class="st0" d="M279,200.7c5.3-2.7,10.1,1.2,6.5,11c-11.3,29.2-31.9,54.7-55.3,50.9c-22.4-4.1-40.5-43.2-29.2-92
	c8.6-37.8,52.9-59.5,77.4-44.3c0,0-11.9,13.9-22.7,58c-7.4,30.7-12.7,55.3-3.9,56.5C261.5,241.8,271,222.9,279,200.7z M260,97.3
	c-16.9-1.8-29.1-17-27.3-33.9c0.2-0.8,0.2-1.7,0.3-2.4c4.8-21.5,26.2-35.1,47.7-30.3c0.6,0.2,1.1,0.3,1.7,0.5
	c23,5,28.9,26.4,20.6,43.2C296.2,88.7,277.8,98.9,260,97.3z"/>
<path class="st0" d="M396.9,174.1c-4.7,27-9.2,50.3-0.3,51.5c9.5,1.2,16.9-15.1,24.8-37.2h0.6c5-2.7,10.1,1.2,6.2,11
	c-11.3,29.2-31.6,52.1-55.3,48.2c-14.8-3-23.9-19-27.6-41.1c-4.4,19.3-11,41.1-32.8,44.9c-23.9,3.6-45.5-15.7-42-35.2
	c4.1-21.8,27.9-32.8,49.7-39.6c4.4-1.5,13.3-4.1,23.6-7.7c0.3-5.9,0.9-12.3,1.8-18.4c2.1-13.9,3-36.1-9.2-35.5
	c-11.3,0.6-20.6,10.7-23,19.9c-3.3,12.3,11.9,13.3,18.7-4.7c0,0,0.9,0,3.6,2.7c7.4,8,8.6,28.9-6.5,36.3c-22.4,10.4-50.9-4.7-43.8-31
	c5-18.1,34.3-42.3,73.3-37.5C385.8,104.3,406.7,122.9,396.9,174.1z M342.6,180.3c-8,5.9-10.7,12.3-12.7,20.6
	c-3,13-3.9,23.9,0.6,23.6C335.8,225.6,337.3,209.6,342.6,180.3z"/>
<path class="st0" d="M426.1,276.6c7.1-14.8,24.2-25.2,44.6-31.6c4.1-19,8.6-42.3,14.2-71.8c6.8-36.6,19.3-50,13-51.5
	c-5.6-1.2-9.8,13.3-28.2,60.4c-9.5,55.6-35.8,66-57.4,59.5c-0.8-4.5-1.1-9.2-0.9-13.9c-0.3-68.8-1.8-111.1,17.2-125.6
	c19.9-14.5,57.7,1.8,58.3,2.1c-0.3,0.3-5.6,6.2-11,36.1c17.2-39.9,32.8-52.4,50.6-47.6c13.9,3.6,24.2,25.5,15.7,68.1
	c-6.2,31.3-11.9,56.2-17.8,76.1c19.6-0.3,36.9,2.1,49.7,7.7c36.1,15.1,18.1,56.8,1.2,69.1c0,0-3.6-13-26.1-23
	c-12.8-5.9-25.9-11-39.3-15.4c-5.1,10.7-11.7,20.6-19.6,29.5C464.1,335.2,405.5,318.7,426.1,276.6z M465.9,269.3v-0.6
	c-5.7,0.9-11,3.6-15.1,7.7C423.6,302.7,453.7,324.5,465.9,269.3z"/>
</svg>
