<svg id="图层_1" data-name="图层 1" xmlns="http://www.w3.org/2000/svg" width="16" height="16" viewBox="0 0 16 16"><title>logo-16</title><path d="M3.7,9.8a3.5,3.5,0,0,1-1.4.6C1,10.4,0,9.2.1,7.2A3.4,3.4,0,0,1,2.5,4.1a1.4,1.4,0,0,1,1-.8C5,3.2,5.2,4.8,5,6.7A6.6,6.6,0,0,1,4,9.4a7.2,7.2,0,0,0,3.5,1.7c1.6.2,2.4-.2,2.7-.8s.8,1.3.3,1.9-2.1.5-3.4,0A10,10,0,0,1,3.7,9.8Zm-.6-.7a6.1,6.1,0,0,1-.9-1.8,5.3,5.3,0,0,1,0-2.5A6.6,6.6,0,0,0,1.6,7c-.1,1.2.3,2.2,1.1,2.2Zm.5-.2a2.8,2.8,0,0,0,.9-2.2c.2-1.4,0-2.1-.9-2S2.5,6.1,2.7,7A3.7,3.7,0,0,0,3.6,8.9Z" fill="#303131"/><path d="M7.2,8.5c.1-.1.2,0,.2.3S6.7,10.1,6,10a2.3,2.3,0,0,1-.9-2.4A1.3,1.3,0,0,1,7,6.6,4.4,4.4,0,0,0,6.6,8c-.2.8-.3,1.4,0,1.5s.4-.5.6-1ZM6.5,5.8a.8.8,0,0,1-.7-.9c0-.6.6-.9,1.2-.7s.8.7.6,1.1A.9.9,0,0,1,6.5,5.8Z" fill="#303131"/><path d="M10.2,8c-.1.7-.2,1.3,0,1.3s.5-.3.6-.9h0c.2,0,.3.1.2.3S10.3,10,9.7,9.9a1.4,1.4,0,0,1-.8-1.1c-.1.4-.2,1-.8,1S6.9,9.4,7,8.9s.7-.8,1.2-.9l.6-.2V7.3c0-.3,0-.9-.3-.9a.5.5,0,0,0-.5.5c-.1.3.3.3.4-.1h.1a.6.6,0,0,1-.1.9.9.9,0,0,1-1.2-.9,1.6,1.6,0,0,1,1.9-.8C9.7,6.2,10.3,6.7,10.2,8Zm-1.4.1a.5.5,0,0,0-.3.5c-.1.3-.1.6,0,.6S8.7,8.8,8.8,8.1Z" fill="#303131"/><path d="M13.4,12.1a2.2,2.2,0,0,1-.5-.8h-.4a2.1,2.1,0,0,0-.8.6,1,1,0,0,1,.2-1.8l.6-.2a6.7,6.7,0,0,1,0-2c.2-1,.5-1.3.3-1.4s-.2.4-.7,1.6-.9,1.8-1.5,1.6V9.4c-.2-1.9-.2-3.1.3-3.4s1.6.1,1.6.1a2.6,2.6,0,0,0-.3,1c.4-1,.8-1.4,1.3-1.2s.8.8.6,1.9a18,18,0,0,0-.2,2.2,2.2,2.2,0,0,1,1.9,1.2C16.3,12.7,14.3,13.2,13.4,12.1Zm.7-1a1.9,1.9,0,0,0,.2.7c.4.8,1.3.5,1.2-.3S14.8,11,14.1,11.1Z" fill="#303131"/></svg>