<svg id="图层_1" data-name="图层 1" xmlns="http://www.w3.org/2000/svg" width="200" height="200" viewBox="0 0 200 200"><title>logo</title><path d="M45.4,99.5a25.5,25.5,0,0,1-17.3,7.1C11.9,106.9-.7,91.7.9,66.6c1.4-22.4,17.3-36,29.3-38.9,2.9-5.4,7.3-8.9,13.1-9.6,18.4-2,21.5,18.3,18.4,42.8C60,73.8,56.1,85.7,50,94.2c11.3,10.7,26.9,19.2,43.6,21.4,20.3,2.6,29.8-2.3,33.9-9.4,0,0,9.8,15.8,4.6,23.3-6.6,9.7-27,6.8-42.9.4A122.4,122.4,0,0,1,45.4,99.5Zm-6.7-8.3A73.5,73.5,0,0,1,27.4,68,65.3,65.3,0,0,1,27,36c-3.3,5.7-6,15.3-7.3,28.1C18.5,79,23.1,91.9,33.6,91.7A20.1,20.1,0,0,0,38.7,91.2Zm5.9-2.9c6.9-5,10.5-15.4,11.8-27.3,1.9-18.2-1.1-26.9-12-26.2s-14.3,17.7-11.8,30C34.2,72.8,38.5,80.9,44.6,88.3Z" fill="#303131"/><path d="M89.7,83.2c1.7-.7,3.3.6,2.4,3.7-3,9.2-9.1,16.9-16.7,15.1S61.3,87.2,63.9,71.8c1.9-12,15.7-18,24-12.6,0,0-3.5,4.2-6,18.2-1.7,9.7-2.9,17.5,0,18s5.7-5.3,7.7-12.2ZM81.3,49.6c-6.5-1.3-10.2-7.5-9.5-12.3,1.1-7.1,8-10.8,15.3-8.6s10,9.2,7.7,14.4S87,50.5,81.3,49.6Z" fill="#303131"/><path d="M127.2,77.4c-.9,8.5-1.8,15.9,1.1,16.5s5.2-4.6,7.2-11.5h.1c1.6-.7,3.4.6,2.3,3.7-3,9.2-9,16-16.7,14.2-4.9-1.2-8.1-6.6-9.8-13.8-1,6-2.6,13-9.6,13.7S86.7,94.1,87.4,87.9s8.3-9.9,15.2-11.5c1.4-.5,4.3-1.1,7.5-2a58.6,58.6,0,0,1,.1-5.9c.4-4.4.2-11.5-3.7-11.6a7.3,7.3,0,0,0-7,5.9c-.8,3.9,4.1,4.5,5.9-1.1,0,0,.2,0,1.2,1,2.6,2.7,3.4,9.5-1.3,11.5-7,2.8-16.6-2.7-14.9-11,1.2-5.7,10.1-12.8,22.9-10.4C122,54.6,129.2,61.1,127.2,77.4Zm-17.4.8c-2.5,1.6-3.2,3.7-3.7,6.3-.7,4.2-.7,7.6.7,7.7S108.7,87.4,109.8,78.2Z" fill="#303131"/><path d="M168.2,129.1a52.9,52.9,0,0,1-6.7-10.4l-4.7,1.6c-8.2,2.7-9.6,7.6-9.6,7.6-6.1-4.2-12-17.4,2.1-23.1a35.4,35.4,0,0,1,7.4-2.3,72.6,72.6,0,0,1,.6-25.4c2.3-12.3,5.4-16.6,3.3-17.3s-3.1,4.4-8.3,20.2c-2,19.1-11.7,22-19.4,19.3a19.9,19.9,0,0,1-.7-4.9c-1.7-23.8-2.3-38.5,3.9-43s20.1,2,20.3,2.1-1.9,2-3,12.5c5.1-13.4,10.1-17.6,16.5-15.5s9.7,9.7,7.2,24.2a135,135,0,0,0-2.1,26.8c10.5,1.5,19.6,6.6,23,15.6C205.1,135.9,179.4,141.9,168.2,129.1Zm8.3-13.4a37.3,37.3,0,0,0,3,8.6c5.4,10.3,16.7,7.5,15.2-2.6C193.9,116.1,186.3,114.7,176.5,115.7Z" fill="#303131"/><path d="M1.5,145h4a9.4,9.4,0,0,1,5.1,1.2,6.8,6.8,0,0,1,3.3,6A7.1,7.1,0,0,1,11,158a10.1,10.1,0,0,1-6,1.5H1.5Zm3.8,12.8a7.8,7.8,0,0,0,4.3-1,5.5,5.5,0,0,0,0-9.1,7.8,7.8,0,0,0-4.3-1H3.4v11.1Z" fill="#303131"/><path d="M41.8,145h8.4v1.7H43.7v4.4h5.7v1.7H43.7v5h6.7v1.7H41.8Z" fill="#303131"/><path d="M78,156.5a8,8,0,0,0,4.4,1.5c1.7,0,2.9-.8,2.9-2.4s-1.7-2.2-3.6-2.7-4-1.4-4-4.1,1.9-4,4.7-4a7.8,7.8,0,0,1,4.2,1.1v2a7.5,7.5,0,0,0-4.2-1.4c-1.7,0-2.8.7-2.8,2.2s1.7,2.1,3.4,2.6,4.2,1.4,4.2,4.2-1.9,4.2-4.8,4.2a9.9,9.9,0,0,1-4.4-1.1Z" fill="#303131"/><path d="M115.2,145h1.9v14.5h-1.9Z" fill="#303131"/><path d="M152.8,144.8a8.3,8.3,0,0,1,4.5,1.2v2.1a7.7,7.7,0,0,0-4.5-1.6,5.8,5.8,0,0,0,0,11.5,6.6,6.6,0,0,0,3-.7v-3.4h-3.2v-1.6h5.1v5.9a9,9,0,0,1-5,1.5,7.5,7.5,0,1,1,.1-14.9Z" fill="#303131"/><path d="M186.3,159.5V145h1.8l6.1,8c.8,1.1,1.6,2.3,2.5,3.4h0V145h1.8v14.5h-1.8l-6.1-8.1-2.5-3.3h0v11.4Z" fill="#303131"/></svg>