<svg enable-background="new 0 0 200 146" viewBox="0 0 200 146" xmlns="http://www.w3.org/2000/svg"><g fill="#303131"><path d="m45.4 81.5c-4.7 4.5-10.8 7-17.3 7.1-16.2.3-28.8-14.9-27.2-40 1.4-22.4 17.3-36 29.3-38.9 2.9-5.4 7.3-8.9 13.1-9.6 18.4-2 21.5 18.3 18.4 42.8-1.7 12.9-5.6 24.8-11.7 33.3 11.3 10.7 26.9 19.2 43.6 21.4 20.3 2.6 29.8-2.3 33.9-9.4 0 0 9.8 15.8 4.6 23.3-6.6 9.7-27 6.8-42.9.4-16.7-6.8-31.6-17.1-43.8-30.4zm-6.7-8.3c-5.1-7-8.9-14.9-11.3-23.2-2.8-10.5-2.9-21.5-.4-32-3.3 5.7-6 15.3-7.3 28.1-1.2 14.9 3.4 27.8 13.9 27.6 1.7.1 3.4-.1 5.1-.5zm5.9-2.9c6.9-5 10.5-15.4 11.8-27.3 1.9-18.2-1.1-26.9-12-26.2s-14.3 17.7-11.8 30c1.6 8 5.9 16.1 12 23.5z"/><path d="m89.7 65.2c1.7-.7 3.3.6 2.4 3.7-3 9.2-9.1 16.9-16.7 15.1s-14.1-14.8-11.5-30.2c1.9-12 15.7-18 24-12.6 0 0-3.5 4.2-6 18.2-1.7 9.7-2.9 17.5 0 18s5.7-5.3 7.7-12.2zm-8.4-33.6c-6.5-1.3-10.2-7.5-9.5-12.3 1.1-7.1 8-10.8 15.3-8.6s10 9.2 7.7 14.4-7.8 7.4-13.5 6.5z"/><path d="m127.2 59.4c-.9 8.5-1.8 15.9 1.1 16.5s5.2-4.6 7.2-11.5h.1c1.6-.7 3.4.6 2.3 3.7-3 9.2-9 16-16.7 14.2-4.9-1.2-8.1-6.6-9.8-13.8-1 6-2.6 13-9.6 13.7s-15.1-6.1-14.4-12.3 8.3-9.9 15.2-11.5c1.4-.5 4.3-1.1 7.5-2-.1-2 0-3.9.1-5.9.4-4.4.2-11.5-3.7-11.6-3.4.1-6.3 2.5-7 5.9-.8 3.9 4.1 4.5 5.9-1.1 0 0 .2 0 1.2 1 2.6 2.7 3.4 9.5-1.3 11.5-7 2.8-16.6-2.7-14.9-11 1.2-5.7 10.1-12.8 22.9-10.4 8.7 1.8 15.9 8.3 13.9 24.6zm-17.4.8c-2.5 1.6-3.2 3.7-3.7 6.3-.7 4.2-.7 7.6.7 7.7s1.9-4.8 3-14z"/><path d="m168.2 111.1c-2.6-3.2-4.9-6.7-6.7-10.4l-4.7 1.6c-8.2 2.7-9.6 7.6-9.6 7.6-6.1-4.2-12-17.4 2.1-23.1 2.4-1 4.9-1.8 7.4-2.3-1.3-8.4-1.1-17 .6-25.4 2.3-12.3 5.4-16.6 3.3-17.3s-3.1 4.4-8.3 20.2c-2 19.1-11.7 22-19.4 19.3-.4-1.6-.7-3.2-.7-4.9-1.7-23.8-2.3-38.5 3.9-43s20.1 2 20.3 2.1-1.9 2-3 12.5c5.1-13.4 10.1-17.6 16.5-15.5s9.7 9.7 7.2 24.2c-1.6 8.8-2.3 17.8-2.1 26.8 10.5 1.5 19.6 6.6 23 15.6 7.1 18.8-18.6 24.8-29.8 12zm8.3-13.4c.6 3 1.7 5.9 3 8.6 5.4 10.3 16.7 7.5 15.2-2.6-.8-5.6-8.4-7-18.2-6z"/><path d="m1.5 127h4c1.8-.1 3.5.3 5.1 1.2 2.1 1.3 3.4 3.6 3.3 6 0 2.3-1.1 4.4-2.9 5.8-1.8 1.1-3.9 1.6-6 1.5h-3.5zm3.8 12.8c1.5.1 3-.3 4.3-1 2.5-1.7 3.2-5.1 1.5-7.6-.4-.6-.9-1.1-1.5-1.5-1.3-.7-2.8-1.1-4.3-1h-1.9v11.1z"/><path d="m41.8 127h8.4v1.7h-6.5v4.4h5.7v1.7h-5.7v5h6.7v1.7h-8.6z"/><path d="m78 138.5c1.3.9 2.8 1.4 4.4 1.5 1.7 0 2.9-.8 2.9-2.4s-1.7-2.2-3.6-2.7-4-1.4-4-4.1 1.9-4 4.7-4c1.5 0 2.9.3 4.2 1.1v2c-1.2-.9-2.7-1.4-4.2-1.4-1.7 0-2.8.7-2.8 2.2s1.7 2.1 3.4 2.6 4.2 1.4 4.2 4.2-1.9 4.2-4.8 4.2c-1.5 0-3-.4-4.4-1.1z"/><path d="m115.2 127h1.9v14.5h-1.9z"/><path d="m152.8 126.8c1.6 0 3.1.4 4.5 1.2v2.1c-1.3-1-2.9-1.6-4.5-1.6-3.2.4-5.4 3.3-5 6.5.3 2.6 2.4 4.6 5 5 1 0 2.1-.2 3-.7v-3.4h-3.2v-1.6h5.1v5.9c-1.5 1-3.2 1.5-5 1.5-4.1.4-7.8-2.5-8.3-6.6-.4-4.1 2.5-7.8 6.6-8.3z"/><path d="m186.3 141.5v-14.5h1.8l6.1 8c.8 1.1 1.6 2.3 2.5 3.4v-11.4h1.8v14.5h-1.8l-6.1-8.1-2.5-3.3v11.4z"/></g></svg>