<svg id="图层_1" data-name="图层 1" xmlns="http://www.w3.org/2000/svg" viewBox="0 0 200 121.9"><title>logo</title><path d="M45,87.5a30.88,30.88,0,0,1-18.8,8.8C9.2,97.8-2.9,82.6.6,56,3.7,32.2,21.4,16.7,34.3,12.7c3.4-5.9,8.3-10,14.4-11.1C68.3-1.9,70,19.3,65,45.4c-2.7,13.9-7.7,26.7-14.7,36.1a71.5,71.5,0,0,0,44.2,19.4c21.2,1.3,31.6-4.6,36.3-12.4,0,0,9.2,15.9,3.2,24.2-7.7,10.8-28.9,9.2-45.2,3.7S56.6,100.7,45,87.5Zm-6.5-8.3A66.65,66.65,0,0,1,28.3,55.5c-2.1-9.9-1.5-23,1.9-33.8-3.8,6.2-7.5,16.6-9.7,30.2C18.2,67.7,22.1,81,33.2,80A17.85,17.85,0,0,0,38.5,79.2ZM45,75.7C52.6,69.9,57.2,58.6,59.4,46c3.3-19.5.8-28.4-10.7-26.9C36.5,20.7,32.4,38.9,34.1,51.7,35.2,60,39,68.3,45,75.7Z"/><path d="M92.8,67c1.8-.9,3.4.4,2.2,3.7-3.8,9.9-10.8,18.5-18.7,17.2-7.6-1.4-13.7-14.6-9.9-31.1,2.9-12.8,17.9-20.1,26.2-15,0,0-4,4.7-7.7,19.6-2.5,10.4-4.3,18.7-1.3,19.1,3.3.4,6.5-6,9.2-13.5ZM86.4,32a10.41,10.41,0,0,1-9.1-12.3A13.52,13.52,0,0,1,94,9.6c7.8,1.7,9.8,8.9,7,14.6C98.6,29.1,92.4,32.6,86.4,32Z"/><path d="M132.7,58c-1.6,9.1-3.1,17-.1,17.4,3.2.4,5.7-5.1,8.4-12.6h.2c1.7-.9,3.4.4,2.1,3.7-3.8,9.9-10.7,17.6-18.7,16.3-5-1-8.1-6.4-9.3-13.9-1.5,6.5-3.7,13.9-11.1,15.2C96.1,85.3,88.8,78.8,90,72.2c1.4-7.4,9.4-11.1,16.8-13.4,1.5-.5,4.5-1.4,8-2.6.1-2,.3-4.2.6-6.2.7-4.7,1-12.2-3.1-12-3.8.2-7,3.6-7.8,6.7-1.1,4.2,4,4.5,6.3-1.6,0,0,.3,0,1.2.9,2.5,2.7,2.9,9.8-2.2,12.3-7.6,3.5-17.2-1.6-14.8-10.5,1.7-6.1,11.6-14.3,24.8-12.7C128.9,34.4,136,40.7,132.7,58Zm-18.4,2.1c-2.7,2-3.6,4.2-4.3,7-1,4.4-1.3,8.1.2,8C112,75.4,112.5,70,114.3,60.1Z"/><path d="M142.6,92.7c2.4-5,8.2-8.5,15.1-10.7,1.4-6.4,2.9-14.3,4.8-24.3,2.3-12.4,6.5-16.9,4.4-17.4-1.9-.4-3.3,4.5-9.5,20.4C154.2,79.5,145.3,83,138,80.8a24.24,24.24,0,0,1-.3-4.7c-.1-23.3-.6-37.6,5.8-42.5,6.7-4.9,19.5.6,19.7.7-.1.1-1.9,2.1-3.7,12.2,5.8-13.5,11.1-17.7,17.1-16.1,4.7,1.2,8.2,8.6,5.3,23-2.1,10.6-4,19-6,25.7,6.6-.1,12.5.7,16.8,2.6,12.2,5.1,6.1,19.2.4,23.4,0,0-1.2-4.4-8.8-7.8A119.64,119.64,0,0,0,171,92.1a43.37,43.37,0,0,1-6.6,10C155.4,112.5,135.6,106.9,142.6,92.7ZM156,90.2V90a9.61,9.61,0,0,0-5.1,2.6C141.7,101.5,151.9,108.9,156,90.2Z"/></svg>