<svg id="图层_1" data-name="图层 1" xmlns="http://www.w3.org/2000/svg" width="64" height="64" viewBox="0 0 64 64"><title>logo-64</title><path d="M14.8,35.4a7.8,7.8,0,0,1-5.5,2.2C4.2,37.7.3,32.9.8,25S6.2,13.7,10,12.7a5.3,5.3,0,0,1,4.1-3c5.8-.6,6.8,5.8,5.8,13.5a22.3,22.3,0,0,1-3.7,10.5A25.3,25.3,0,0,0,30,40.4c6.4.9,9.4-.7,10.7-2.9,0,0,3,5,1.4,7.3S33.6,47,28.6,45A39.5,39.5,0,0,1,14.8,35.4Zm-2.1-2.7a22.6,22.6,0,0,1-3.6-7.3,21.1,21.1,0,0,1-.1-10,23.3,23.3,0,0,0-2.3,8.8c-.4,4.7,1.1,8.8,4.4,8.7A4.1,4.1,0,0,0,12.7,32.7Zm1.8-.9c2.2-1.5,3.4-4.8,3.8-8.6.6-5.7-.4-8.5-3.8-8.2s-4.5,5.5-3.7,9.4A17.2,17.2,0,0,0,14.5,31.8Z" fill="#303131"/><path d="M28.8,30.2c.5-.2,1,.2.7,1.2-.9,2.9-2.9,5.3-5.3,4.7s-4.4-4.6-3.6-9.5,5-5.6,7.6-3.9c0,0-1.1,1.3-1.9,5.7s-.9,5.5,0,5.7,1.8-1.7,2.4-3.9ZM26.1,19.6a3.7,3.7,0,0,1-3-3.9c.3-2.2,2.5-3.4,4.8-2.6a3.2,3.2,0,0,1,2.4,4.5A3.9,3.9,0,0,1,26.1,19.6Z" fill="#303131"/><path d="M40.6,28.4c-.3,2.7-.6,5,.3,5.2s1.6-1.4,2.3-3.6h0c.5-.2,1.1.2.8,1.1-1,2.9-2.9,5.1-5.3,4.5s-2.6-2.1-3.1-4.3c-.3,1.9-.8,4.1-3,4.3s-4.8-1.9-4.6-3.9,2.6-3.1,4.8-3.6l2.4-.6V25.6c.1-1.4.1-3.6-1.2-3.7a2.5,2.5,0,0,0-2.2,1.9c-.2,1.2,1.3,1.4,1.9-.3l.4.3c.8.8,1.1,3-.4,3.6s-5.3-.9-4.7-3.5,3.2-4,7.2-3.2S41.2,23.3,40.6,28.4Zm-5.5.2a3,3,0,0,0-1.2,2.1c-.2,1.3-.2,2.3.2,2.4S34.7,31.5,35.1,28.6Z" fill="#303131"/><path d="M53.5,44.7a18.5,18.5,0,0,1-2.1-3.3l-1.5.5c-2.6.9-3,2.4-3,2.4-1.9-1.3-3.8-5.5.6-7.3l2.4-.7a21.6,21.6,0,0,1,.2-8c.7-3.9,1.7-5.2,1-5.4s-1,1.3-2.6,6.3-3.7,7-6.1,6.1a4.7,4.7,0,0,1-.3-1.5c-.5-7.6-.7-12.2,1.3-13.6s6.3.6,6.4.7-.6.6-1,3.9c1.6-4.2,3.2-5.5,5.2-4.9s3.1,3.1,2.3,7.7a50.1,50.1,0,0,0-.7,8.4c3.4.5,6.2,2.1,7.3,4.9C65.1,46.8,57,48.7,53.5,44.7Zm2.6-4.2a16.9,16.9,0,0,0,1,2.7c1.6,3.2,5.2,2.3,4.7-.9C61.6,40.6,59.2,40.1,56.1,40.5Z" fill="#303131"/><path d="M1,49.7H2.2a2.7,2.7,0,0,1,1.6.4,2.1,2.1,0,0,1,1,1.9,2.1,2.1,0,0,1-.9,1.8,3,3,0,0,1-1.8.5H1Zm1.2,4a1.9,1.9,0,0,0,1.3-.3A1.8,1.8,0,0,0,4.3,52a1.6,1.6,0,0,0-.8-1.4,2.3,2.3,0,0,0-1.4-.4H1.6v3.5Z" fill="#303131"/><path d="M13.7,49.7h2.6v.5h-2v1.4H16v.6H14.3v1.5h2.1v.6H13.7Z" fill="#303131"/><path d="M25.1,53.3a2.7,2.7,0,0,0,1.4.5.8.8,0,0,0,.9-.8c0-.5-.6-.6-1.2-.8S25,51.7,25,50.9a1.3,1.3,0,0,1,1.5-1.3,2.2,2.2,0,0,1,1.3.4v.6a2.5,2.5,0,0,0-1.4-.4c-.5,0-.8.2-.8.7s.5.6,1.1.8S28,52.1,28,53s-.6,1.3-1.6,1.3a3.1,3.1,0,0,1-1.3-.3Z" fill="#303131"/><path d="M36.8,49.7h.6v4.6h-.6Z" fill="#303131"/><path d="M48.6,49.6A2.6,2.6,0,0,1,50,50v.7a2,2,0,0,0-1.4-.5A1.8,1.8,0,0,0,46.8,52a1.8,1.8,0,0,0,1.9,1.8l.9-.2V52.5h-1V52h1.6v1.9a2.7,2.7,0,0,1-1.6.4A2.3,2.3,0,0,1,46.2,52,2.4,2.4,0,0,1,48.6,49.6Z" fill="#303131"/><path d="M59.2,54.3V49.7h.6l1.9,2.5a7.6,7.6,0,0,0,.8,1.1h0V49.7H63v4.6h-.5l-1.9-2.6-.8-1h0v3.6Z" fill="#303131"/></svg>