<?xml version="1.0" encoding="utf-8"?>
<!-- Generator: Adobe Illustrator 24.0.1, SVG Export Plug-In . SVG Version: 6.00 Build 0)  -->
<svg version="1.1" id="图层_1" xmlns="http://www.w3.org/2000/svg" xmlns:xlink="http://www.w3.org/1999/xlink" x="0px" y="0px"
	 viewBox="0 0 16 10.2" style="enable-background:new 0 0 16 10.2;" xml:space="preserve">
<title>logo-16</title>
<path d="M3.6,7.2C3.2,7.6,2.7,7.8,2.1,7.9C0.7,8-0.2,6.8,0,4.6c0.2-1.9,1.7-3.1,2.7-3.5C3,0.7,3.4,0.4,3.9,0.3
	C5.5,0,5.6,1.7,5.2,3.8C5,4.9,4.6,5.9,4,6.7c1,0.9,2.2,1.5,3.5,1.6c1.7,0.1,2.5-0.4,2.9-1c0,0,0.7,1.3,0.3,1.9
	C10.1,10,8.4,9.9,7.1,9.5S4.5,8.2,3.6,7.2z M3.1,6.5C2.7,5.9,2.4,5.3,2.3,4.6C2.1,3.8,2.1,2.8,2.4,1.9C2.1,2.4,1.8,3.2,1.6,4.3
	c-0.2,1.3,0.1,2.3,1,2.3C2.8,6.6,2.9,6.5,3.1,6.5z M3.6,6.2c0.6-0.5,1-1.4,1.2-2.4C5,2.3,4.8,1.6,3.9,1.7c-1,0.1-1.3,1.6-1.2,2.6
	C2.8,5,3.1,5.6,3.6,6.2z"/>
<path d="M7.4,5.5c0.1-0.1,0.3,0,0.2,0.3C7.3,6.6,6.7,7.3,6.1,7.2C5.5,7.1,5,6,5.3,4.7c0.2-1,1.4-1.6,2.1-1.2c0,0-0.3,0.4-0.6,1.6
	C6.6,5.9,6.5,6.6,6.7,6.6C7,6.6,7.2,6.1,7.4,5.5z M6.9,2.7c-0.5,0-0.8-0.5-0.7-0.9c0,0,0,0,0-0.1c0.1-0.6,0.7-1,1.3-0.8c0,0,0,0,0,0
	c0.6,0.1,0.8,0.7,0.6,1.2C7.9,2.5,7.4,2.8,6.9,2.7z"/>
<path d="M10.6,4.8c-0.1,0.7-0.2,1.4,0,1.4c0.3,0,0.5-0.4,0.7-1h0c0.1-0.1,0.3,0,0.2,0.3c-0.3,0.8-0.9,1.4-1.5,1.3
	C9.6,6.7,9.3,6.3,9.2,5.7C9.1,6.2,8.9,6.8,8.3,6.9C7.7,7,7.1,6.5,7.2,5.9C7.3,5.3,8,5,8.6,4.9c0.1,0,0.4-0.1,0.6-0.2
	c0-0.2,0-0.3,0-0.5c0.1-0.4,0.1-1-0.2-1c-0.3,0-0.6,0.3-0.6,0.5C8.3,4.1,8.7,4.1,8.9,3.6c0,0,0,0,0.1,0.1c0.2,0.2,0.2,0.8-0.2,1
	C8.2,4.9,7.4,4.5,7.6,3.8c0.1-0.5,0.9-1.1,2-1C10.3,2.9,10.9,3.4,10.6,4.8z M9.2,5C8.9,5.1,8.9,5.3,8.8,5.5c-0.1,0.4-0.1,0.6,0,0.6
	C9,6.2,9,5.8,9.2,5z"/>
<path d="M11.4,7.6c0.2-0.4,0.7-0.7,1.2-0.9c0.1-0.5,0.2-1.1,0.4-1.9c0.2-1,0.5-1.4,0.4-1.4c-0.2,0-0.3,0.4-0.8,1.6
	c-0.3,1.5-1,1.8-1.6,1.6c0-0.1,0-0.3,0-0.4c0-1.9,0-3,0.5-3.4c0.5-0.4,1.6,0,1.6,0.1c0,0-0.2,0.2-0.3,1c0.5-1.1,0.9-1.4,1.4-1.3
	c0.4,0.1,0.7,0.7,0.4,1.8c-0.2,0.8-0.3,1.5-0.5,2.1c0.5,0,1,0.1,1.3,0.2c1,0.4,0.5,1.5,0,1.9c0,0-0.1-0.4-0.7-0.6
	c-0.3-0.2-0.7-0.3-1.1-0.4c-0.1,0.3-0.3,0.6-0.5,0.8C12.4,9.2,10.9,8.7,11.4,7.6z M12.5,7.4L12.5,7.4c-0.2,0-0.3,0.1-0.4,0.2
	C11.3,8.3,12.2,8.9,12.5,7.4z"/>
</svg>
