<?xml version="1.0" encoding="utf-8"?>
<!-- Generator: Adobe Illustrator 23.1.1, SVG Export Plug-In . SVG Version: 6.00 Build 0)  -->
<svg version="1.1" id="图层_1" xmlns="http://www.w3.org/2000/svg" xmlns:xlink="http://www.w3.org/1999/xlink" x="0px" y="0px"
	 viewBox="0 0 200 121.9" style="enable-background:new 0 0 200 121.9;" xml:space="preserve">
<g>
	<path d="M45.4,82.7c-4.7,4.5-10.8,7-17.3,7.1c-16.2,0.3-28.8-14.9-27.2-40c1.4-22.4,17.3-36,29.3-38.9c2.9-5.4,7.3-8.9,13.1-9.6
		c18.4-2,21.5,18.3,18.4,42.8C60,57,56.1,68.9,50,77.4c11.3,10.7,26.9,19.2,43.6,21.4c20.3,2.6,29.8-2.3,33.9-9.4
		c0,0,9.8,15.8,4.6,23.3c-6.6,9.7-27,6.8-42.9,0.4C72.5,106.3,57.6,96,45.4,82.7z M38.7,74.4c-5.1-7-8.9-14.9-11.3-23.2
		c-2.8-10.5-2.9-21.5-0.4-32c-3.3,5.7-6,15.3-7.3,28.1c-1.2,14.9,3.4,27.8,13.9,27.6C35.3,75,37,74.8,38.7,74.4z M44.6,71.5
		c6.9-5,10.5-15.4,11.8-27.3c1.9-18.2-1.1-26.9-12-26.2S30.1,35.7,32.6,48C34.2,56,38.5,64.1,44.6,71.5z"/>
	<path d="M89.7,66.4c1.7-0.7,3.3,0.6,2.4,3.7c-3,9.2-9.1,16.9-16.7,15.1S61.3,70.4,63.9,55c1.9-12,15.7-18,24-12.6
		c0,0-3.5,4.2-6,18.2c-1.7,9.7-2.9,17.5,0,18S87.6,73.3,89.7,66.4C89.6,66.4,89.7,66.4,89.7,66.4z M81.3,32.8
		c-6.5-1.3-10.2-7.5-9.5-12.3c1.1-7.1,8-10.8,15.3-8.6s10,9.2,7.7,14.4S87,33.7,81.3,32.8z"/>
	<path d="M127.2,60.6c-0.9,8.5-1.8,15.9,1.1,16.5s5.2-4.6,7.2-11.5h0.1c1.6-0.7,3.4,0.6,2.3,3.7c-3,9.2-9,16-16.7,14.2
		c-4.9-1.2-8.1-6.6-9.8-13.8c-1,6-2.6,13-9.6,13.7s-15.1-6.1-14.4-12.3s8.3-9.9,15.2-11.5c1.4-0.5,4.3-1.1,7.5-2
		c-0.1-2,0-3.9,0.1-5.9c0.4-4.4,0.2-11.5-3.7-11.6c-3.4,0.1-6.3,2.5-7,5.9c-0.8,3.9,4.1,4.5,5.9-1.1c0,0,0.2,0,1.2,1
		c2.6,2.7,3.4,9.5-1.3,11.5c-7,2.8-16.6-2.7-14.9-11c1.2-5.7,10.1-12.8,22.9-10.4C122,37.8,129.2,44.3,127.2,60.6L127.2,60.6z
		 M109.8,61.4c-2.5,1.6-3.2,3.7-3.7,6.3c-0.7,4.2-0.7,7.6,0.7,7.7S108.7,70.6,109.8,61.4z"/>
	<path d="M168.2,112.3c-2.6-3.2-4.9-6.7-6.7-10.4l-4.7,1.6c-8.2,2.7-9.6,7.6-9.6,7.6c-6.1-4.2-12-17.4,2.1-23.1
		c2.4-1,4.9-1.8,7.4-2.3c-1.3-8.4-1.1-17,0.6-25.4c2.3-12.3,5.4-16.6,3.3-17.3s-3.1,4.4-8.3,20.2c-2,19.1-11.7,22-19.4,19.3
		c-0.4-1.6-0.7-3.2-0.7-4.9c-1.7-23.8-2.3-38.5,3.9-43s20.1,2,20.3,2.1s-1.9,2-3,12.5c5.1-13.4,10.1-17.6,16.5-15.5
		s9.7,9.7,7.2,24.2c-1.6,8.8-2.3,17.8-2.1,26.8c10.5,1.5,19.6,6.6,23,15.6C205.1,119.1,179.4,125.1,168.2,112.3L168.2,112.3z
		 M176.5,98.9c0.6,3,1.7,5.9,3,8.6c5.4,10.3,16.7,7.5,15.2-2.6C193.9,99.3,186.3,97.9,176.5,98.9z"/>
</g>
</svg>
