<?xml version="1.0" encoding="utf-8"?>
<!-- Generator: Adobe Illustrator 23.1.1, SVG Export Plug-In . SVG Version: 6.00 Build 0)  -->
<svg version="1.1" id="图层_1" xmlns="http://www.w3.org/2000/svg" xmlns:xlink="http://www.w3.org/1999/xlink" x="0px" y="0px"
	 viewBox="0 0 200 121.9" style="enable-background:new 0 0 200 121.9;" xml:space="preserve">
<g>
	<path d="M45,87.5c-5.3,5-11.6,8.2-18.8,8.8C9.2,97.8-2.9,82.6,0.6,56c3.1-23.8,20.8-39.3,33.7-43.3c3.4-5.9,8.3-10,14.4-11.1
		C68.3-1.9,70,19.3,65,45.4c-2.7,13.9-7.7,26.7-14.7,36.1C61.3,92,77.1,99.8,94.5,100.9c21.2,1.3,31.6-4.6,36.3-12.4
		c0,0,9.2,15.9,3.2,24.2c-7.7,10.8-28.9,9.2-45.2,3.7C72.6,110.8,56.6,100.7,45,87.5z M38.5,79.2c-4.8-7.2-8.5-15.2-10.2-23.7
		c-2.1-9.9-1.5-23,1.9-33.8c-3.8,6.2-7.5,16.6-9.7,30.2C18.2,67.7,22.1,81,33.2,80C35.1,80,36.9,79.7,38.5,79.2z M45,75.7
		c7.6-5.8,12.2-17.1,14.4-29.7c3.3-19.5,0.8-28.4-10.7-26.9c-12.2,1.6-16.3,19.8-14.6,32.6C35.2,60,39,68.3,45,75.7z"/>
	<path d="M92.8,67c1.8-0.9,3.4,0.4,2.2,3.7c-3.8,9.9-10.8,18.5-18.7,17.2c-7.6-1.4-13.7-14.6-9.9-31.1c2.9-12.8,17.9-20.1,26.2-15
		c0,0-4,4.7-7.7,19.6c-2.5,10.4-4.3,18.7-1.3,19.1C86.9,80.9,90.1,74.5,92.8,67L92.8,67z M86.4,32c-6.8-0.8-10.2-7.2-9.1-12.3
		c1.6-7.5,9.2-12,16.7-10.1c7.8,1.7,9.8,8.9,7,14.6C98.6,29.1,92.4,32.6,86.4,32z"/>
	<path d="M132.7,58c-1.6,9.1-3.1,17-0.1,17.4c3.2,0.4,5.7-5.1,8.4-12.6c0,0,0.1,0,0.2,0c1.7-0.9,3.4,0.4,2.1,3.7
		c-3.8,9.9-10.7,17.6-18.7,16.3c-5-1-8.1-6.4-9.3-13.9c-1.5,6.5-3.7,13.9-11.1,15.2c-8.1,1.2-15.4-5.3-14.2-11.9
		c1.4-7.4,9.4-11.1,16.8-13.4c1.5-0.5,4.5-1.4,8-2.6c0.1-2,0.3-4.2,0.6-6.2c0.7-4.7,1-12.2-3.1-12c-3.8,0.2-7,3.6-7.8,6.7
		c-1.1,4.2,4,4.5,6.3-1.6c0,0,0.3,0,1.2,0.9c2.5,2.7,2.9,9.8-2.2,12.3c-7.6,3.5-17.2-1.6-14.8-10.5c1.7-6.1,11.6-14.3,24.8-12.7
		C128.9,34.4,136,40.7,132.7,58z M114.3,60.1c-2.7,2-3.6,4.2-4.3,7c-1,4.4-1.3,8.1,0.2,8C112,75.4,112.5,70,114.3,60.1z"/>
	<path d="M142.6,92.7c2.4-5,8.2-8.5,15.1-10.7c1.4-6.4,2.9-14.3,4.8-24.3c2.3-12.4,6.5-16.9,4.4-17.4c-1.9-0.4-3.3,4.5-9.5,20.4
		c-3.2,18.8-12.1,22.3-19.4,20.1c0,0-0.3-1.3-0.3-4.7c-0.1-23.3-0.6-37.6,5.8-42.5c6.7-4.9,19.5,0.6,19.7,0.7
		c-0.1,0.1-1.9,2.1-3.7,12.2c5.8-13.5,11.1-17.7,17.1-16.1c4.7,1.2,8.2,8.6,5.3,23c-2.1,10.6-4,19-6,25.7c6.6-0.1,12.5,0.7,16.8,2.6
		c12.2,5.1,6.1,19.2,0.4,23.4c0,0-1.2-4.4-8.8-7.8c-3.6-1.6-8.4-3.7-13.3-5.2c-1.8,3.8-4,7-6.6,10
		C155.4,112.5,135.6,106.9,142.6,92.7z M156,90.2V90c-2,0.4-3.7,1.2-5.1,2.6C141.7,101.5,151.9,108.9,156,90.2z"/>
</g>
</svg>
